<svg width="1328" height="1080" viewBox="0 0 1328 1080" fill="none" xmlns="http://www.w3.org/2000/svg">
<path d="M196.133 879.971C184.105 876.72 174.048 870.624 165.853 861.934C157.657 853.245 151.874 842.871 147.255 829.88C142.636 816.889 139.852 802.834 138.205 786.251C136.558 769.667 136.262 752.446 137.096 732.822C137.974 712.123 140.165 689.878 143.553 666.147C146.832 643.183 151.288 618.695 156.856 592.791C162.424 566.887 168.737 540.957 176.232 512.866C183.728 484.774 191.908 456.542 201.253 426.206C208.577 402.384 216.549 377.61 225.131 351.904C233.604 326.548 242.666 300.223 252.375 272.946C262.084 245.669 272.125 218.046 282.913 189.151C293.701 160.255 304.895 130.877 316.788 100.275C336.869 48.6479 357.1 -1.81216 376.239 -48.5448C395.378 -95.2774 413.303 -138.096 428.926 -174.937C444.539 -211.75 457.823 -242.496 467.273 -264.187C476.732 -285.906 482.425 -298.581 482.77 -299.178L438.036 -325.347C437.691 -324.75 432.011 -311.912 422.432 -289.909C412.853 -267.906 399.508 -236.858 383.7 -199.626C367.892 -162.394 349.624 -118.882 330.286 -71.9223C310.847 -24.7384 290.181 26.195 269.607 78.2777C257.4 109.167 245.791 139.056 234.761 167.909C223.73 196.761 213.087 225.189 203.124 252.355C193.04 279.805 183.537 306.313 174.653 331.861C165.768 357.409 157.196 382.67 149.352 406.619C139.372 437.142 130.339 466.166 122.25 493.689C114.162 521.213 106.711 548.646 100.451 573.888C94.1919 599.129 88.6097 624.356 84.2962 647.352C79.9827 670.347 76.5397 693.324 74.4692 713.942C72.3988 734.559 71.6682 751.27 72.0123 767.097C72.3564 782.924 74.0291 797.979 77.0844 810.229C80.1396 822.479 84.9204 833.503 91.1853 841.497C97.4502 849.492 106.074 855.56 116.331 858.325C142.928 865.518 169.534 872.681 196.131 879.874" fill="#03ADF4"/>
<path d="M347.169 920.732C331.978 916.628 318.868 909.841 307.748 900.565C296.628 891.288 288.223 880.485 280.993 867.133C273.764 853.78 268.632 839.446 264.669 822.688C260.706 805.931 258.307 788.569 257.058 768.844C255.719 748.065 255.839 725.786 257.292 702.096C258.747 678.406 261.401 654.768 265.318 629.024C269.235 603.28 274.09 577.507 280.217 549.695C286.345 521.884 293.262 493.901 301.405 463.929C307.816 440.367 314.895 415.892 322.603 390.524C330.311 365.155 338.546 339.534 347.489 312.66C356.343 286.078 365.834 258.573 375.965 230.146C386.095 201.718 396.689 172.827 408.033 142.759C427.165 92.0219 446.622 42.5065 465.123 -3.30354C483.521 -48.889 501.083 -91.0521 516.335 -127.112C531.587 -163.171 544.615 -193.197 553.941 -214.382C563.266 -235.567 568.877 -247.978 569.272 -248.528L526.517 -273.539C526.151 -272.98 520.504 -260.452 511.117 -238.966C501.73 -217.48 488.573 -187.142 473.145 -150.721C457.708 -114.271 439.913 -71.6673 421.215 -25.6307C402.414 20.6306 382.551 70.6284 362.964 121.801C351.345 152.135 340.365 181.548 329.992 209.932C319.619 238.316 309.721 266.303 300.494 293.057C291.267 319.811 282.518 346.266 274.477 371.467C266.328 397.019 258.817 421.648 251.954 445.325C243.205 475.494 235.54 504.237 228.898 531.537C222.116 559.498 216.407 586.063 211.819 611.182C207.11 637.001 203.563 661.45 201.222 684.385C198.881 707.32 197.694 730.357 197.949 751.119C198.191 770.788 199.653 788.691 202.392 804.749C205.26 821.423 209.5 836.154 215.215 848.812C220.93 861.471 228.73 872.983 238.008 881.592C247.285 890.2 259.351 897.048 273.034 900.748L347.189 920.77" fill="#FF7F1D"/>
<path d="M487.947 958.728C470.032 953.908 454.297 946.498 440.64 936.724C426.984 926.949 416.288 915.787 406.778 902.144C397.269 888.501 390.091 873.948 384.025 857.05C377.959 840.153 373.739 822.675 370.603 802.94C367.298 782.096 365.551 759.846 365.284 736.231C365.017 712.615 366.097 689.097 368.527 663.501C370.874 638.583 374.491 612.361 379.327 584.79C384.163 557.218 389.926 529.549 396.973 499.909C402.499 476.618 408.781 452.44 415.712 427.407C422.643 402.374 430.169 377.077 438.406 350.624C446.643 324.17 455.413 297.339 464.953 269.369C474.493 241.399 484.526 212.973 495.329 183.41C513.56 133.514 532.32 84.9031 550.229 39.9663C568.075 -4.76608 585.151 -46.0872 600.071 -81.3855C614.991 -116.684 627.782 -146.047 636.933 -166.773C646.084 -187.5 651.663 -199.601 652.078 -200.113L611.106 -224.058C610.712 -223.509 605.135 -211.311 595.873 -190.33C586.611 -169.35 573.72 -139.666 558.654 -103.997C543.587 -68.3278 526.249 -26.5757 508.15 18.5586C490.052 63.6928 470.822 112.991 452.174 163.302C441.097 193.132 430.695 222.019 420.971 249.964C411.136 278.163 401.969 305.448 393.489 331.858C384.899 358.522 376.967 384.301 369.733 409.176C362.399 434.372 355.743 458.722 349.764 482.129C342.179 511.954 335.697 540.393 330.377 567.462C325.056 594.531 320.662 621.504 317.59 646.485C314.436 672.146 312.56 696.474 312.019 719.39C311.477 742.307 312.292 765.292 314.638 786.126C316.855 805.832 320.361 823.857 325.223 840.093C330.085 856.329 336.781 871.917 344.864 884.894C352.947 897.871 363.368 909.812 375.279 918.917C387.189 928.022 402.182 935.553 418.794 940.033C441.848 946.255 464.902 952.477 487.927 958.69" fill="#EE2677"/>
<path d="M1324.37 -83.1979C1322.89 -81.5128 1284.75 -38.4946 1220.1 31.581C1158.96 97.8495 1076.88 185.284 984.578 279.732C900.406 365.847 810.102 455.31 721.292 538.097C641.677 612.306 564.413 680.072 493.956 735.286C456.168 764.9 422.096 789.551 391.489 809.642C362.657 828.555 336.771 843.547 313.594 854.865C291.662 865.576 272.1 873.084 254.75 877.596C237.399 882.108 223.687 883.458 210.981 882.495C205.803 881.945 204.541 881.778 203.298 881.553C198.469 880.599 197.311 880.304 196.153 880.009C169.556 872.816 142.95 865.653 116.354 858.46C123.534 859.887 124.611 860.029 125.736 860.122C126.86 860.214 127.955 860.298 129.127 860.341C140.138 860.779 152.943 858.635 167.613 853.676C183.063 848.478 200.642 840.131 220.532 828.466C241.559 816.129 265.243 799.974 291.773 779.707C319.988 758.138 351.566 731.816 386.808 700.292C452.657 641.344 525.552 569.181 601.175 490.181C685.821 401.715 772.483 306.128 853.74 213.922C943.114 112.484 1023.05 18.4289 1082.8 -52.9467C1146.14 -128.615 1183.66 -174.996 1185.13 -176.845L1324.4 -83.1889" fill="#03ADF4"/>
<path d="M1570.16 82.077C1568.66 83.5304 1529.89 120.845 1463.75 181.559C1400.93 239.206 1316.06 315.498 1219.72 397.968C1131.28 473.667 1035.61 552.467 940.396 625.425C854.479 691.243 770.182 751.321 692.194 799.94C650.144 826.151 611.936 847.823 577.288 865.348C544.545 881.895 514.86 894.78 488.016 904.288C462.536 913.322 439.528 919.345 418.84 922.534C398.152 925.723 381.469 926.119 365.744 924.252C359.3 923.342 357.746 923.084 356.211 922.768C350.145 921.463 348.686 921.107 347.236 920.721L273.081 900.699C278.411 902 279.8 902.27 281.199 902.512C286.917 903.389 288.362 903.581 289.856 903.724C304.148 905.148 320.324 904.113 338.497 900.465C357.594 896.622 378.962 889.899 402.741 880.048C427.834 869.677 455.718 855.785 486.607 838.087C519.362 819.335 555.614 796.224 595.675 768.371C670.161 716.585 751.178 652.832 834.204 583.011C926.51 505.374 1019.76 421.498 1106.33 340.867C1200.93 252.735 1284.63 171.148 1346.75 109.444C1412.3 44.3213 1450.85 4.31236 1452.35 2.76229L1570.27 82.0458" fill="#FF7F1D"/>
<path d="M1780.42 223.428C1778.9 224.718 1740.11 257.477 1673.49 310.647C1606.87 363.817 1523.81 428.57 1425.18 501.299C1334.19 568.394 1234.99 638.417 1135.31 703.168C1044.89 761.923 955.346 815.475 871.589 858.527C826.245 881.827 784.761 900.946 746.864 916.247C710.981 930.731 678.229 941.833 648.352 949.76C619.938 957.308 594.087 962.065 570.599 964.161C548.193 966.176 527.904 965.807 509.608 963.142C507.706 962.872 505.813 962.573 503.958 962.254C496.671 960.859 494.873 960.461 493.112 960.043C491.352 959.625 489.63 959.187 487.917 958.72C464.863 952.498 441.809 946.276 418.784 940.063C425.242 941.65 426.895 942.002 428.576 942.364C435.434 943.594 437.181 943.848 438.966 944.081C456.006 946.357 475.047 946.307 496.175 943.767C518.326 941.128 542.828 935.761 569.825 927.517C598.273 918.827 629.564 906.856 663.956 891.397C700.322 875.045 740.27 854.681 784.065 829.972C865.162 784.238 952.249 727.555 1040.62 665.409C1138.28 596.734 1235.93 522.516 1325.82 451.333C1423.48 373.981 1509.15 302.451 1572.4 248.462C1638.88 191.726 1677.74 156.808 1679.25 155.451L1780.39 223.449" fill="#EE2677"/>
</svg>
